<svg xmlns="http://www.w3.org/2000/svg" width="173.697" height="47.174" viewBox="0 0 173.697 47.174">
  <defs>
    <style>
      .cls-1 {
        fill: #ffa000;
      }

      .cls-2 {
        fill: #0ad2dc;
      }

      .cls-3 {
        fill: #b3b3b3;
      }
    </style>
  </defs>
  <g id="baysense" transform="translate(0 -0.5)">
    <g id="Gruppe_20" data-name="Gruppe 20" transform="translate(72.799 11.396)">
      <path id="Pfad_51" data-name="Pfad 51" class="cls-1" d="M243.071,50.584a9.8,9.8,0,0,0,6.4,2.656c2.445,0,3.712-.905,3.712-2.294,0-1.63-1.992-2.233-4.286-2.747-3.229-.694-7.093-1.569-7.093-5.765,0-3.079,2.656-5.735,7.425-5.735a10.84,10.84,0,0,1,7.334,2.656l-1.72,2.9a7.575,7.575,0,0,0-5.584-2.264c-2.143,0-3.5.785-3.5,2.113,0,1.449,1.871,1.962,4.1,2.445,3.229.694,7.274,1.63,7.274,6.067,0,3.32-2.777,5.855-7.847,5.855a11.559,11.559,0,0,1-8.089-2.928Z" transform="translate(-241.2 -36.67)"/>
      <path id="Pfad_52" data-name="Pfad 52" class="cls-1" d="M313.3,36.6c5.674,0,9.3,4.346,9.3,10.262v.966H308.016a5.7,5.7,0,0,0,6.006,5.191,7.964,7.964,0,0,0,5.342-2.083l1.871,2.686a10.942,10.942,0,0,1-7.666,2.747,9.475,9.475,0,0,1-9.87-9.93A9.581,9.581,0,0,1,313.3,36.6Zm-5.312,8.36H318.61a5.057,5.057,0,0,0-5.312-5.01A5.218,5.218,0,0,0,307.986,44.96Z" transform="translate(-284.836 -36.6)"/>
      <path id="Pfad_53" data-name="Pfad 53" class="cls-1" d="M392.507,44.145c0-2.928-1.479-3.893-3.773-3.893a6.145,6.145,0,0,0-4.829,2.535V55.947h-4.1V37.083h4.1v2.565a8.943,8.943,0,0,1,6.64-3.048c4.075,0,6.1,2.173,6.1,6.036v13.28h-4.1V44.145Z" transform="translate(-337.968 -36.6)"/>
      <path id="Pfad_54" data-name="Pfad 54" class="cls-1" d="M449.541,50.584a9.8,9.8,0,0,0,6.4,2.656c2.445,0,3.712-.905,3.712-2.294,0-1.63-1.992-2.233-4.286-2.747-3.229-.694-7.093-1.569-7.093-5.765,0-3.079,2.656-5.735,7.425-5.735a10.84,10.84,0,0,1,7.334,2.656l-1.72,2.9a7.575,7.575,0,0,0-5.584-2.264c-2.143,0-3.5.785-3.5,2.113,0,1.449,1.871,1.962,4.1,2.445,3.29.694,7.3,1.63,7.3,6.1,0,3.32-2.777,5.855-7.847,5.855a11.559,11.559,0,0,1-8.089-2.928Z" transform="translate(-385.374 -36.67)"/>
      <path id="Pfad_55" data-name="Pfad 55" class="cls-1" d="M519.768,36.6c5.674,0,9.3,4.346,9.3,10.262v.966H514.516a5.7,5.7,0,0,0,6.006,5.191,7.964,7.964,0,0,0,5.342-2.083l1.871,2.686a10.942,10.942,0,0,1-7.666,2.747,9.475,9.475,0,0,1-9.87-9.93A9.538,9.538,0,0,1,519.768,36.6Zm-5.312,8.36H525.08a5.057,5.057,0,0,0-5.312-5.01A5.26,5.26,0,0,0,514.456,44.96Z" transform="translate(-429.011 -36.6)"/>
    </g>
    <g id="Gruppe_21" data-name="Gruppe 21" transform="translate(0 0.5)">
      <path id="Pfad_56" data-name="Pfad 56" class="cls-2" d="M6.58.5V13.871a7.636,7.636,0,0,1,5.795-2.445,9.214,9.214,0,0,1,3.8.785,8.294,8.294,0,0,1,2.928,2.113,9.576,9.576,0,0,1,1.9,3.109,10.8,10.8,0,0,1,.694,3.833,11,11,0,0,1-.694,3.893,9.569,9.569,0,0,1-1.992,3.169,9.118,9.118,0,0,1-2.988,2.113,9,9,0,0,1-3.712.785A6.885,6.885,0,0,1,6.58,28.569v2.083H0V.5Zm8.27,20.856a4.523,4.523,0,0,0-.332-1.66,4.122,4.122,0,0,0-.905-1.358,5.045,5.045,0,0,0-1.328-.936,3.8,3.8,0,0,0-1.66-.332,4.25,4.25,0,0,0-1.63.332,4,4,0,0,0-1.328.905,5.335,5.335,0,0,0-.905,1.358,3.8,3.8,0,0,0-.332,1.66,4.25,4.25,0,0,0,.332,1.63,4,4,0,0,0,.905,1.328,5.335,5.335,0,0,0,1.358.905,3.8,3.8,0,0,0,1.66.332,4.25,4.25,0,0,0,1.63-.332,4,4,0,0,0,1.328-.905,5.741,5.741,0,0,0,.905-1.328A4.57,4.57,0,0,0,14.85,21.356Z" transform="translate(0 -0.5)"/>
      <path id="Pfad_57" data-name="Pfad 57" class="cls-2" d="M93.421,37.2h6.61V55.826h-6.61V53.743a6.827,6.827,0,0,1-5.7,2.656,9.018,9.018,0,0,1-3.743-.755,8.613,8.613,0,0,1-2.988-2.083,10.082,10.082,0,0,1-1.992-3.169,10.579,10.579,0,0,1-.694-3.954,10.753,10.753,0,0,1,.694-3.8A9.288,9.288,0,0,1,80.926,39.5a8.874,8.874,0,0,1,2.928-2.113,9.073,9.073,0,0,1,3.773-.785,7.526,7.526,0,0,1,5.765,2.445V37.2Zm-8.27,9.266a4.44,4.44,0,0,0,.332,1.69,4.562,4.562,0,0,0,.875,1.358,3.714,3.714,0,0,0,1.328.905,4.44,4.44,0,0,0,1.69.332,4.523,4.523,0,0,0,1.66-.332,3.714,3.714,0,0,0,1.328-.905,5.74,5.74,0,0,0,.905-1.328,3.755,3.755,0,0,0,.332-1.63,4.523,4.523,0,0,0-.332-1.66,5.335,5.335,0,0,0-.905-1.358,3.714,3.714,0,0,0-1.328-.905,4.287,4.287,0,0,0-1.66-.332,4.44,4.44,0,0,0-1.69.332,3.714,3.714,0,0,0-1.328.905,4.418,4.418,0,0,0-.875,1.328A3.99,3.99,0,0,0,85.151,46.47Z" transform="translate(-54.668 -25.704)"/>
      <path id="Pfad_58" data-name="Pfad 58" class="cls-2" d="M161.356,28.086,152.362,12H160l4.98,9.538L176.236.5h6.942L157.764,47.674H150.4Z" transform="translate(-105.006 -0.5)"/>
    </g>
    <g id="Gruppe_27" data-name="Gruppe 27" transform="translate(63.05 36.839)">
      <g id="Gruppe_24" data-name="Gruppe 24" transform="translate(54.871 1.509)">
        <g id="Gruppe_22" data-name="Gruppe 22" transform="translate(6.308)">
          <path id="Pfad_59" data-name="Pfad 59" class="cls-3" d="M417.576,126.841a3.283,3.283,0,0,1,0,4.769,3.463,3.463,0,0,1-2.475.845,3.722,3.722,0,0,1-2.475-.845,3.283,3.283,0,0,1,0-4.769,4.047,4.047,0,0,1,4.95,0Zm-.755,2.384a1.682,1.682,0,0,0-1.72-1.72,1.72,1.72,0,1,0,1.72,1.72Z" transform="translate(-411.6 -125.966)"/>
          <path id="Pfad_60" data-name="Pfad 60" class="cls-3" d="M439.1,126.181h1.72v.694a2.208,2.208,0,0,1,1.811-.875,2.048,2.048,0,0,1,1.932,1.117A2.255,2.255,0,0,1,446.525,126a1.922,1.922,0,0,1,1.66.755,2.586,2.586,0,0,1,.423,1.72v3.833h-1.72v-3.32a1.932,1.932,0,0,0-.272-1.207.871.871,0,0,0-.694-.3,1,1,0,0,0-.936.543,2.428,2.428,0,0,0-.241,1.177v3.109h-1.751v-3.32a1.932,1.932,0,0,0-.272-1.207.871.871,0,0,0-.694-.3,1,1,0,0,0-.936.543,2.429,2.429,0,0,0-.241,1.177v3.109h-1.72v-6.127Z" transform="translate(-430.8 -125.97)"/>
          <path id="Pfad_61" data-name="Pfad 61" class="cls-3" d="M477.72,135.226H476v-9.115h1.72v.785a2.284,2.284,0,0,1,1.992-1,2.884,2.884,0,0,1,2.083.815,3.663,3.663,0,0,1-.06,4.889,3.055,3.055,0,0,1-2.083.785,2.3,2.3,0,0,1-1.962-1v3.833Zm.392-7.395a1.593,1.593,0,0,0-.573,1.3,1.663,1.663,0,0,0,.573,1.328,1.594,1.594,0,0,0,1.117.423,1.562,1.562,0,0,0,1.147-.423,1.8,1.8,0,0,0,.543-1.3,1.779,1.779,0,0,0-.513-1.268,1.814,1.814,0,0,0-1.177-.423A1.477,1.477,0,0,0,478.113,127.832Z" transform="translate(-456.563 -125.9)"/>
          <path id="Pfad_62" data-name="Pfad 62" class="cls-3" d="M506.58,126.181h1.72v6.1h-1.72v-.785a2.262,2.262,0,0,1-1.871,1,3.1,3.1,0,0,1-3.109-3.26A3.042,3.042,0,0,1,504.618,126a2.227,2.227,0,0,1,1.962,1Zm-3.229,3.048a1.69,1.69,0,1,0,1.69-1.72A1.676,1.676,0,0,0,503.351,129.229Z" transform="translate(-474.436 -125.97)"/>
          <path id="Pfad_63" data-name="Pfad 63" class="cls-3" d="M529.13,126.111h1.72v.785a2.265,2.265,0,0,1,1.9-1,2.31,2.31,0,0,1,1.811.755,2.548,2.548,0,0,1,.483,1.72v3.833H533.3v-3.32a1.688,1.688,0,0,0-.332-1.207,1.279,1.279,0,0,0-1.871.241,2.226,2.226,0,0,0-.272,1.177v3.109H529.1v-6.1Z" transform="translate(-493.636 -125.9)"/>
          <path id="Pfad_64" data-name="Pfad 64" class="cls-3" d="M553.5,131.791l-2.9-5.191h1.992l1.9,3.471,1.69-3.471h1.932l-4.829,9.115h-1.962Z" transform="translate(-508.647 -126.389)"/>
        </g>
        <g id="Gruppe_23" data-name="Gruppe 23" transform="translate(0 0)">
          <path id="Pfad_65" data-name="Pfad 65" class="cls-3" d="M394.02,125.9a2.969,2.969,0,0,1,2.475,1.117l-1.087,1.026a1.494,1.494,0,0,0-1.328-.664,1.666,1.666,0,0,0-1.69,1.811,1.692,1.692,0,0,0,1.69,1.841,1.642,1.642,0,0,0,1.328-.664l1.087,1a2.944,2.944,0,0,1-2.475,1.147,3.3,3.3,0,1,1,0-6.61Z" transform="translate(-390.7 -125.9)"/>
        </g>
      </g>
      <g id="Gruppe_26" data-name="Gruppe 26" transform="translate(9.387)">
        <path id="Pfad_66" data-name="Pfad 66" class="cls-3" d="M352.9,120.9l3.743,4.648-2.415,3.229H356.4l1.358-1.841,3.863,4.8h2.233l-5.04-6.248,2.113-2.9h-2.143L357.7,124.1l-2.565-3.2Z" transform="translate(-318.825 -120.9)"/>
        <path id="Pfad_67" data-name="Pfad 67" class="cls-3" d="M351.251,128.673v4.014H349.5V126.5Z" transform="translate(-316.451 -124.81)"/>
        <g id="Gruppe_25" data-name="Gruppe 25" transform="translate(0 0.03)">
          <path id="Pfad_68" data-name="Pfad 68" class="cls-3" d="M336.167,129.059a1.972,1.972,0,0,1-1.388-.453,1.668,1.668,0,0,1-.453-1.268v-3.26H333.3V122.66h1.026V121h1.751v1.69h1.268v1.419h-1.268v2.807a.665.665,0,0,0,.151.483.506.506,0,0,0,.422.181,1.12,1.12,0,0,0,.694-.241v1.449a3.466,3.466,0,0,1-1.177.272" transform="translate(-305.14 -121)"/>
          <path id="Pfad_69" data-name="Pfad 69" class="cls-3" d="M313.469,126.181h1.75v6.187h-1.75v-.785a2.025,2.025,0,0,1-1.781,1,3.071,3.071,0,0,1-2.988-3.29,3.022,3.022,0,0,1,2.9-3.29,2.067,2.067,0,0,1,1.871,1Zm-3.2,3.079a1.63,1.63,0,0,0,1.6,1.751,1.653,1.653,0,0,0,1.63-1.751,1.636,1.636,0,0,0-1.63-1.751,1.666,1.666,0,0,0-1.6,1.751" transform="translate(-287.965 -124.491)"/>
          <path id="Pfad_70" data-name="Pfad 70" class="cls-3" d="M286.5,126.111h1.751v.785a2.282,2.282,0,0,1,1.932-1,2.37,2.37,0,0,1,1.841.755,2.674,2.674,0,0,1,.483,1.751V132.3h-1.751v-3.38a1.688,1.688,0,0,0-.332-1.207,1.187,1.187,0,0,0-.815-.3,1.22,1.22,0,0,0-1.087.543,2.267,2.267,0,0,0-.272,1.207v3.169H286.5Z" transform="translate(-272.465 -124.421)"/>
          <path id="Pfad_71" data-name="Pfad 71" class="cls-3" d="M261.9,131.791,259,126.6h2.022l1.871,3.35,1.751-3.35h1.962l-4.769,9.115h-1.992Z" transform="translate(-253.265 -124.91)"/>
          <path id="Pfad_72" data-name="Pfad 72" class="cls-3" d="M242.807,132.619a4.64,4.64,0,0,1-1.569-.272,3.489,3.489,0,0,1-1.237-.694l.694-1.147a3.771,3.771,0,0,0,1,.6,3.006,3.006,0,0,0,1.177.272,1.438,1.438,0,0,0,.785-.181.544.544,0,0,0,.272-.483c0-.151-.091-.272-.272-.392a3.168,3.168,0,0,0-.694-.211c-.272-.06-.543-.121-.905-.181a4.361,4.361,0,0,1-.875-.332,1.585,1.585,0,0,1-.694-.573,1.723,1.723,0,0,1-.272-.966,1.7,1.7,0,0,1,.694-1.388,2.776,2.776,0,0,1,1.871-.573,3.953,3.953,0,0,1,2.535.845l-.664,1.117a2.089,2.089,0,0,0-.785-.513,2.993,2.993,0,0,0-1.056-.211,1.121,1.121,0,0,0-.694.181.532.532,0,0,0-.272.453c0,.121.091.241.272.332a2.87,2.87,0,0,0,.664.211,5.551,5.551,0,0,1,.905.211,4.014,4.014,0,0,1,.905.332,1.659,1.659,0,0,1,.694.6,1.858,1.858,0,0,1,.272,1.026,1.721,1.721,0,0,1-.724,1.449,3.925,3.925,0,0,1-2.022.483" transform="translate(-240 -124.561)"/>
        </g>
      </g>
      <path id="Pfad_73" data-name="Pfad 73" class="cls-3" d="M213.669,126.081h1.751v6.187h-1.751v-.785a2.055,2.055,0,0,1-1.781,1,3.088,3.088,0,0,1-2.988-3.29,3.022,3.022,0,0,1,2.9-3.29,2.067,2.067,0,0,1,1.871,1Zm-3.229,3.079a1.62,1.62,0,1,0,1.6-1.751,1.685,1.685,0,0,0-1.6,1.751" transform="translate(-208.9 -124.391)"/>
    </g>
  </g>
</svg>
