<svg xmlns="http://www.w3.org/2000/svg" width="25.553" height="23.222" viewBox="0 0 25.553 23.222">
  <defs>
    <style>
      .cls-1 {
        fill: #fff;
      }
    </style>
  </defs>
  <path id="bath" class="cls-1" d="M25.392,13.614H5.646V7.121A2.294,2.294,0,0,1,6.854,5.078,2.317,2.317,0,0,1,8.187,4.81,4.055,4.055,0,0,0,9.16,8.938l1.232,1.232a1.161,1.161,0,0,0,1.642,0l4.106-4.106a1.161,1.161,0,0,0,0-1.642L14.909,3.19a4.058,4.058,0,0,0-5.261-.4A4.637,4.637,0,0,0,3.323,7.121v6.493H2.162a1.162,1.162,0,0,0,0,2.323H3.323v3.485a3.479,3.479,0,0,0,2.323,3.27v1.376a1.162,1.162,0,1,0,2.323,0V22.906H19.584v1.162a1.162,1.162,0,1,0,2.323,0V22.692a3.479,3.479,0,0,0,2.323-3.271V15.937h1.162a1.162,1.162,0,0,0,0-2.323ZM10.8,4.832a1.744,1.744,0,0,1,2.464,0l.411.411L11.213,7.707,10.8,7.3a1.744,1.744,0,0,1,0-2.464Zm11.1,14.589a1.162,1.162,0,0,1-1.162,1.162H6.808a1.162,1.162,0,0,1-1.162-1.162V15.937H21.907Z" transform="translate(-1 -2.008)"/>
</svg>
