<svg xmlns="http://www.w3.org/2000/svg" width="18.804" height="18.804" viewBox="0 0 18.804 18.804">
  <defs>
    <style>
      .cls-1 {
        fill: #fff;
      }
    </style>
  </defs>
  <path id="building" class="cls-1" d="M13.283,7.641h.94a.94.94,0,1,0,0-1.88h-.94a.94.94,0,0,0,0,1.88Zm0,3.761h.94a.94.94,0,1,0,0-1.88h-.94a.94.94,0,1,0,0,1.88Zm-4.7-3.761h.94a.94.94,0,0,0,0-1.88h-.94a.94.94,0,1,0,0,1.88Zm0,3.761h.94a.94.94,0,0,0,0-1.88h-.94a.94.94,0,1,0,0,1.88Zm11.283,7.522h-.94V2.94a.94.94,0,0,0-.94-.94H4.821a.94.94,0,0,0-.94.94V18.924H2.94a.94.94,0,1,0,0,1.88H19.864a.94.94,0,0,0,0-1.88Zm-7.522,0h-1.88V15.163h1.88Zm4.7,0H14.223v-4.7a.94.94,0,0,0-.94-.94H9.522a.94.94,0,0,0-.94.94v4.7H5.761V3.88H17.044Z" transform="translate(-2 -2)"/>
</svg>
