<svg xmlns="http://www.w3.org/2000/svg" width="20.185" height="22.427" viewBox="0 0 20.185 22.427">
  <defs>
    <style>
      .cls-1 {
        fill: #fff;
      }
    </style>
  </defs>
  <path id="chat-bubble-user" class="cls-1" d="M15.985,12.429a3.633,3.633,0,0,0,.8-2.243,3.689,3.689,0,1,0-7.379,0,3.633,3.633,0,0,0,.8,2.243,5.607,5.607,0,0,0-2.243,2.59,1.121,1.121,0,1,0,2.063.875,3.364,3.364,0,0,1,3.073-2.041h0a3.364,3.364,0,0,1,3.084,2.041,1.121,1.121,0,0,0,1.032.684,1.222,1.222,0,0,0,.437-.09,1.121,1.121,0,0,0,.594-1.469,5.607,5.607,0,0,0-2.254-2.59Zm-2.893-.819h0a1.447,1.447,0,1,1,1.447-1.435,1.447,1.447,0,0,1-1.447,1.435ZM19.82,2H6.364A3.364,3.364,0,0,0,3,5.364V17.7a3.364,3.364,0,0,0,3.364,3.364h2.9L12.3,24.1a1.13,1.13,0,0,0,1.525.056l3.611-3.095H19.82A3.364,3.364,0,0,0,23.184,17.7V5.364A3.364,3.364,0,0,0,19.82,2Zm1.121,15.7A1.121,1.121,0,0,1,19.82,18.82h-2.8a1.121,1.121,0,0,0-.729.269l-3.14,2.691-2.624-2.635a1.121,1.121,0,0,0-.8-.325H6.364A1.121,1.121,0,0,1,5.243,17.7V5.364A1.121,1.121,0,0,1,6.364,4.243H19.82a1.121,1.121,0,0,1,1.121,1.121Z" transform="translate(-3 -2)"/>
</svg>
