<svg xmlns="http://www.w3.org/2000/svg" width="21.451" height="19.306" viewBox="0 0 21.451 19.306">
  <defs>
    <style>
      .cls-1 {
        fill: #fff;
      }
    </style>
  </defs>
  <path id="desktop" class="cls-1" d="M20.234,3H5.218A3.218,3.218,0,0,0,2,6.218V14.8a3.218,3.218,0,0,0,3.218,3.218h6.435v2.145H7.363a1.073,1.073,0,1,0,0,2.145H18.088a1.073,1.073,0,1,0,0-2.145H13.8V18.016h6.435A3.218,3.218,0,0,0,23.451,14.8V6.218A3.218,3.218,0,0,0,20.234,3Zm1.073,11.8a1.073,1.073,0,0,1-1.073,1.073H5.218A1.073,1.073,0,0,1,4.145,14.8V6.218A1.073,1.073,0,0,1,5.218,5.145H20.234a1.073,1.073,0,0,1,1.073,1.073Z" transform="translate(-2 -3)"/>
</svg>
