<svg id="Icon" xmlns="http://www.w3.org/2000/svg" xmlns:xlink="http://www.w3.org/1999/xlink" width="18" height="18" viewBox="0 0 18 18">
  <defs>
    <style>
      .cls-1 {
        fill: #7e7e7e;
      }

      .cls-2 {
        clip-path: url(#clip-path);
      }
    </style>
    <clipPath id="clip-path">
      <path id="Mask" class="cls-1" d="M13.033,18H4.967A4.973,4.973,0,0,1,0,13.033V4.967A4.973,4.973,0,0,1,4.967,0h8.066A4.973,4.973,0,0,1,18,4.967v8.066A4.973,4.973,0,0,1,13.033,18ZM4.967,1.6A3.374,3.374,0,0,0,1.6,4.967v8.066A3.374,3.374,0,0,0,4.967,16.4h8.066A3.374,3.374,0,0,0,16.4,13.033V4.967A3.374,3.374,0,0,0,13.033,1.6ZM9,13.714A4.714,4.714,0,1,1,13.714,9,4.72,4.72,0,0,1,9,13.714ZM9,5.909A3.091,3.091,0,1,0,12.091,9,3.095,3.095,0,0,0,9,5.909Z"/>
    </clipPath>
  </defs>
  <path id="Mask-2" data-name="Mask" class="cls-1" d="M13.033,18H4.967A4.973,4.973,0,0,1,0,13.033V4.967A4.973,4.973,0,0,1,4.967,0h8.066A4.973,4.973,0,0,1,18,4.967v8.066A4.973,4.973,0,0,1,13.033,18ZM4.967,1.6A3.374,3.374,0,0,0,1.6,4.967v8.066A3.374,3.374,0,0,0,4.967,16.4h8.066A3.374,3.374,0,0,0,16.4,13.033V4.967A3.374,3.374,0,0,0,13.033,1.6ZM9,13.714A4.714,4.714,0,1,1,13.714,9,4.72,4.72,0,0,1,9,13.714ZM9,5.909A3.091,3.091,0,1,0,12.091,9,3.095,3.095,0,0,0,9,5.909Z"/>
</svg>
