<svg xmlns="http://www.w3.org/2000/svg" width="16.03" height="19.969" viewBox="0 0 16.03 19.969">
  <defs>
    <style>
      .cls-1 {
        fill: #fff;
      }
    </style>
  </defs>
  <path id="kitchen" class="cls-1" d="M8.016,12H9.985v5.016H8.016V12Zm0-6.984H9.985v3H8.016ZM18,9V3.984H6V9Zm0,11.016V10.969H6v9.047Zm0-18a1.987,1.987,0,0,1,1.43.563,1.869,1.869,0,0,1,.586,1.406V20.016a1.857,1.857,0,0,1-.609,1.383A1.968,1.968,0,0,1,18,21.985H6A1.968,1.968,0,0,1,4.6,21.4a1.857,1.857,0,0,1-.609-1.383V3.985a1.867,1.867,0,0,1,.586-1.406A1.992,1.992,0,0,1,6,2.016H18Z" transform="translate(-3.986 -2.016)"/>
</svg>
