<svg xmlns="http://www.w3.org/2000/svg" width="21.856" height="21.863" viewBox="0 0 21.856 21.863">
  <defs>
    <style>
      .cls-1 {
        fill: #fff;
      }
    </style>
  </defs>
  <path id="meeting-board" class="cls-1" d="M7.464,10.743H9.65a1.093,1.093,0,0,0,0-2.186H7.464a1.093,1.093,0,0,0,0,2.186Zm15.3-6.557H14.021V3.093a1.093,1.093,0,1,0-2.186,0V4.186H3.093A1.093,1.093,0,0,0,2,5.278V16.207a3.278,3.278,0,0,0,3.278,3.278h5.016l-2.513,2.5a1.1,1.1,0,1,0,1.552,1.552l2.5-2.513v1.738a1.093,1.093,0,0,0,2.186,0V21.026l2.5,2.513a1.1,1.1,0,1,0,1.552-1.552l-2.513-2.5h5.016a3.278,3.278,0,0,0,3.278-3.278V5.278A1.093,1.093,0,0,0,22.763,4.186ZM21.671,16.207A1.093,1.093,0,0,1,20.578,17.3H5.278a1.093,1.093,0,0,1-1.093-1.093V6.371H21.671ZM7.464,15.114h6.557a1.093,1.093,0,1,0,0-2.186H7.464a1.093,1.093,0,1,0,0,2.186Z" transform="translate(-2 -2)"/>
</svg>
