<svg xmlns="http://www.w3.org/2000/svg" width="21.274" height="21.275" viewBox="0 0 21.274 21.275">
  <defs>
    <style>
      .cls-1 {
        fill: #0ad2dc;
      }
    </style>
  </defs>
  <path id="Shape" class="cls-1" d="M10.637,21.275a10.638,10.638,0,1,1,5.236-19.9L14.3,3.216a8.188,8.188,0,0,0-3.66-.851,8.273,8.273,0,1,0,8.274,8.273h2.363A10.637,10.637,0,0,1,10.637,21.275Zm-.355-5.91a1.187,1.187,0,0,1-.837-.349L6.253,11.8A1.182,1.182,0,1,1,7.93,10.139l2.31,2.325,6.61-7.344A1.182,1.182,0,1,1,18.607,6.7l-7.446,8.274a1.187,1.187,0,0,1-.85.391Z"/>
</svg>
