<svg xmlns="http://www.w3.org/2000/svg" width="20.283" height="21.259" viewBox="0 0 20.283 21.259">
  <defs>
    <style>
      .cls-1 {
        fill: #fff;
      }
    </style>
  </defs>
  <path id="trees" class="cls-1" d="M17.445,5.2a5.188,5.188,0,0,0-2.669.737A6.405,6.405,0,0,0,2.5,8.4v4.27a6.405,6.405,0,0,0,5.338,6.309v3.3a1.068,1.068,0,0,0,2.135,0v-3.3a6.491,6.491,0,0,0,2.968-1.345,5.338,5.338,0,0,0,3.437,2.4v2.242a1.068,1.068,0,0,0,2.135,0V20.035a5.338,5.338,0,0,0,4.27-5.231v-4.27A5.338,5.338,0,0,0,17.445,5.2Zm-5.338,5.338V14.8a5.583,5.583,0,0,0,.064.608,4.27,4.27,0,0,1-2.2,1.388V13.737a1.068,1.068,0,0,0-2.135,0V16.79a4.27,4.27,0,0,1-3.2-4.121V8.4a4.27,4.27,0,0,1,7.291-3.032A4.206,4.206,0,0,1,13.058,7.5,5.338,5.338,0,0,0,12.108,10.534Zm8.54,4.27a3.2,3.2,0,0,1-2.135,3.01V13.737a1.068,1.068,0,1,0-2.135,0v4.078a3.2,3.2,0,0,1-2.135-3.01v-4.27a3.2,3.2,0,0,1,6.405,0Z" transform="translate(-2.5 -2.086)"/>
</svg>
